<?xml version="1.0" encoding="utf-8"?>
<!-- Generator: Adobe Illustrator 27.6.1, SVG Export Plug-In . SVG Version: 6.00 Build 0)  -->
<svg version="1.1" id="Layer_1" xmlns="http://www.w3.org/2000/svg" xmlns:xlink="http://www.w3.org/1999/xlink" x="0px" y="0px"
	 viewBox="0 0 841.9 595.3" style="enable-background:new 0 0 841.9 595.3;" xml:space="preserve">
<style type="text/css">
	.st0{opacity:0.75;}
	.st1{fill:#12C539;enable-background:new    ;}
	.st2{fill:none;}
	.st3{fill:#12C539;}
</style>
<g id="Layer_1_00000099622755876113989540000000691849060571537542_">
</g>
<g id="Logo" class="st0">
	<path class="st1" d="M631.9,508.2l-36.7,13.6c0,0-38.7,6.5-51.4,4.2c-10.6-2-28.2-16.5-38.8-18.6c-10.1-2-31.4,4.5-41.2,1.3
		c-6-2-19.9-15.7-19.9-15.7l-24.4-4.5c0,0-20.1-1.8-26.2-4.5c-6.2-2.7-21.8-16.3-21.8-16.3s-24.3-20.7-33.9-25
		c-8.6-3.9-27.8-6.1-37-8.4c-7.2-1.8-21.6-6-27.9-9.8c-8.8-5.3-30.3-27.9-30.3-27.9s33.4,22.5,46,27.1c8.6,3.1,27.2,3.9,36.2,5.9
		c5.7,1.3,22,7.9,22,7.9s-19-17.1-26.3-21.2c-14.6-8.2-47.6-16.9-61.7-25.9c-11.2-7.2-39.3-35.8-39.3-35.8l24.4,14.9
		c0,0-15.5-17-19.3-23.6c-3.4-6.1-9.4-26.3-9.4-26.3l16.5,17.3c0,0-6.5-20.8-9.8-27.2c-3.2-6.2-12-17.4-15.3-23.5
		c-2.9-5.3-7.6-16.8-8.6-22.8c-1.9-11,0.8-44.8,0.8-44.8l-7.5,29.1l-11-17.3l-1.2-37l-5.5,11l-0.4,25.6l-10.2-6.3l-2,4.3l13.4,9
		c0,0,13.6,16.3,15.3,23c1.7,6.7-1.7,21-0.4,27.8c1.7,8.8,10.2,24.8,13.8,33c2.7,6.1,7.8,20.9,3.9,26.3c-1.7,2.3-9.1,1.6-11.4,0
		c-3.3-2.3-5.5-14.9-5.5-14.9s3.7-14.9,1.6-19.3c-0.6-1.3-4.7-3.2-4.7-3.2s-12.7-12.1-15.3-17.2c-1.9-3.9-3.5-16.9-3.5-16.9
		s-3.4,17-1.2,22c2.4,5.5,14.5,12,16.5,17.7c1.2,3.4-1.2,14.1-1.2,14.1s-3.6-6.2-5.5-7.5c-4-2.7-14.2-3.8-18.1-6.7
		c-4.5-3.3-13.4-17.7-13.4-17.7s6.4,17.3,10.6,21.6c4,4.1,15.8,8.2,18.9,13c2.7,4.3,2.7,15,4.7,19.7c4.8,10.7,20,29.2,24.4,40.1
		c1.8,4.4,3.3,14.7,1.2,18.9c-4.9,9.6-36.2,23.2-36.2,23.2v6.7c0,0,9.9-7.6,13.8-8.6c5.9-1.6,24.4,0.4,24.4,0.4
		s-14.6,17.7-17.7,24.6c-1.3,2.9-2.8,12.4-2.8,12.4l10.2,13.8c0,0,24.4-33.8,26.3-47.2c0.6-4.1-3.3-14.7,0.4-16.5
		c2.5-1.2,6.9,5,8.3,7.5c3.5,6.1,4.4,21.2,2.4,27.9c-3.3,11.1-28.7,36.6-28.7,36.6l6.7,6.3l12.2-13l-4.3,21.6l6.7,7.9l5.5-34.2
		c0,0,12.4-22.7,20.1-23c5.1-0.2,14.7,9.2,14.6,14.3c-0.2,8.5-19.3,19.1-19.7,27.5c-0.4,9.4-5.9,26.3-9.4,24.4
		c-1.7-0.9,4.7,5.9,4.7,5.9l6.3-8.3l2.4-10.6l5.5,7l-1.6,21.3l6.7,4.3c0,0,2.7-23.9,2-31.9c-0.3-3.1-2.4-9.1-2-12.2
		c0.9-6.8,9.7-21.9,16.5-21.6c3.4,0.2,6.5,8.1,7.1,11.4c1.4,8.6,2.9,26.6,0.4,35c-2.1,7-14.9,25.2-14.9,25.2l7.9,5.1l14.6-24.8
		c0,0-0.7-13.2,2.8-14.1c5.5-1.5,15.3,11.2,15.3,16.9c0.1,8.4-15.3,29.9-15.3,29.9l9.4,4.7l11.4-23.2l7.9,9.4v22.4l8.6,3.1
		l-1.6-26.7c0,0-6.2-14.6-5.5-19.7c0.7-5,9.1-15.5,14.1-14.6c2.1,0.4,3.5,7.9,3.5,7.9l13.8,14.1l3.9,12.6l-13,14.1l-4.7,15.7
		l11.4,3.1l8.9-23.2l24.5-13.8l18.5,29.9l1.6,14h7.9l-3.9-19.1l-19.3-33.4c0,0-2.9-22.6,0-18.9c5,6.3,31.4,24.5,41.7,24.8
		c6.1,0.2,10.5,15.3,11.8,21.2c1.3,6.2,0,25.4,0,25.4h6.9l2.6-26.7l-9.4-18.3c0,0-0.9-3.9,0-4.7c3.5-3.1,15.9-1.5,18.5,2.4
		c3,4.4-0.8,21.4-0.8,21.4l7.1,0.4l3.5-15.9l12.2,10.6l0.4,25.2h6.5l0.6-21l17.5,11.2l16.3-2c0,0-54.5-16.3-52.3-31.4
		c1.2-8.3-1.2-13.8-3-19.2c-2.8-8.5,26.9-3.3,35.6-1.5c6.8,1.4,18.7,9,24.4,13c7.7,5.4,27.9,25.4,27.9,25.4l6.1-5.9
		c0,0-18.8-23.6-14.1-19.7c5.7,4.8,42.9-5.1,42.9-5.1l36.2-17.7l24.2-25.4L631.9,508.2z M342.5,491.6c-4,8.7-14.8,29.7-24.4,29.5
		c-5.9-0.1-13.9-12.2-15.7-17.8c-2.2-6.8-1.1-21.8-3.7-28.6c-1.2-3.2-7.6-9.9-5.5-12.6c7.7-9.9,42.4-2.3,49.3,8.1
		C345.5,474.7,344.8,486.7,342.5,491.6z M381.6,533.9c-1.6,3.7-8.2,12.3-12.1,11c-3.3-1.1-3-10-4.5-13.1
		c-2.3-4.7-12.6-9.8-14.9-14.5c-1.3-2.7-1.4-9.4,0-12c1-1.9,5.7-3.5,6.6-5.5c2.1-4.8-2.9-19.4,2.1-20.7c8.6-2.3,19,20.1,21,28.8
		C381.2,514.3,384.1,527.9,381.6,533.9z M388.1,494.4c0.1-0.3,1,0.1,1.3,0c18.2-4,36.1-0.7,46.2,4.7c4.7,2.5,18.3,8.6,16.1,13.1
		c-4.6,9.9-35.8,3.2-46.4-1.2C399.6,508.7,385.7,499.7,388.1,494.4z M466.4,536.9c-5.7,6.6-26.7,1.1-34.6-2.6
		c-3.5-1.6-16.3-6.3-13-8.1c5.1-2.8,34.3-6,43.2,0C464.5,527.8,468.3,534.7,466.4,536.9z"/>
	<path class="st2" d="M462.1,526.3c-9-6-38.1-2.8-43.2,0c-3.4,1.8,9.5,6.5,13,8.1c7.9,3.6,28.9,9.1,34.6,2.6
		C468.3,534.7,464.5,527.8,462.1,526.3z"/>
	<path class="st2" d="M435.5,499.1c-10.1-5.4-28-8.7-46.2-4.7c-0.3,0.1-1.1-0.3-1.3,0c-2.4,5.3,11.5,14.3,17.2,16.6
		c10.6,4.4,41.8,11.1,46.4,1.2C453.8,507.6,440.2,501.6,435.5,499.1z"/>
	<path class="st2" d="M358.8,479.1c-5,1.4,0,16-2.1,20.7c-0.9,2-5.5,3.6-6.6,5.5c-1.4,2.6-1.3,9.3,0,12c2.3,4.7,12.7,9.8,14.9,14.5
		c1.5,3.1,1.2,12,4.5,13.1c3.9,1.3,10.4-7.3,12.1-11c2.6-6-0.4-19.6-1.8-25.9C377.8,499.3,367.4,476.8,358.8,479.1z"/>
	<path class="st2" d="M293.2,462.1c-2.1,2.7,4.3,9.4,5.5,12.6c2.6,6.7,1.4,21.7,3.7,28.6c1.9,5.7,9.8,17.7,15.7,17.8
		c9.6,0.3,20.4-20.8,24.4-29.5c2.2-4.8,2.9-16.9,0-21.4C335.7,459.8,300.9,452.3,293.2,462.1z"/>
	<path class="st3" d="M282.2,372.3c-8.2,0.6,38.7,20.9,49.9,30.3c9.5,7.9,27.6,27.2,29.9,39.3c2,10.2,129.1-68.4,186.8-55.2
		c50.2,11.5,145.9,13.1,145.9,13.1s7.1-16.9,6.3-30.7c-0.7-12.4-29.2-19.7-41.7-20.1c-143.1-3.5-148.9-40.9-204.1-39.3
		C411.9,311.1,341.6,368,282.2,372.3z"/>
	<path class="st3" d="M683.3,410.2c-37.9,6.3-99.2-9.4-134.2-13.1c-48.2-5.1-144.2,49.9-181.9,51.5c-18.9,0.8,49.4,41,76,27.7
		c10.5-5.2,11.5,31.4,48,23.1c27.8-6.4,32.8,14,51.6,16.8C646.1,531.3,731,402.3,683.3,410.2z"/>
	<path class="st3" d="M521.3,313.4c-28-6.7,60.1-53.3,88.9-53.3c22.8,0,11.8,22.9,53.8,35.6c33.4,10.1,78.7,56.3-31.4,39.7
		C578.3,327.2,570.8,325.1,521.3,313.4z"/>
	<path class="st3" d="M294.2,395.7c0,0-44.6-21-51.9-41.1c-5.4-14.8-20.6-59.4-20.6-59.4S207,274.9,204.6,267
		c-3.1-10-1.9-31.7,0-42.1c2.3-12.9,18.3-49.2,18.3-49.2s1.5-16-0.4-20.8c-2.4-6.4-17.9-20.8-17.9-20.8h5.7l8.3,9l11,18.9l11.4-13.4
		l14.6-14.6l-8.3,19.7l-14.1,26.7l18.9-16.1l21.6-19.7l30.3-40.9c0,0,8.6-18.8,13-24c3.8-4.4,18.5-14.1,18.5-14.1l3.1,2.4l-14.9,13
		l-7.1,13.4l13-3.1l9-7.1v5.5c0,0-3.9,7.1-14.9,11c-7.7,2.8-24.8,21.2-24.8,21.2l17.7-7.5l14.9-1.6c0,0,14.9-9.8,18.9-14.1
		c4-4.4,12.2-20.4,12.2-20.4V68l3.1,4.3L364,84.9l14.6-8.3v2.8l-19.7,13c0,0-5.4,11-8.3,13.8c-6.5,6.3-31.4,18.1-31.4,18.1h17.3
		l13-5.9l-10.6,9.8c0,0-27-1.6-35,2c-7.4,3.3-23.2,22.8-23.2,22.8l43.7-12.6l28.3-12.6l25.9-29.5c0,0,15.5-20.5,22-25.9
		c6-5,26.9-15.3,26.9-15.3l7.3-13.4v5.9l-3.1,7.5l32.2-2.8v3.9c0,0-45.8,7.6-58.6,15.7c-6.8,4.3-20.8,24.4-20.8,24.4
		s25.8-5.4,33-10.2c4.5-3,13.8-16.5,13.8-16.5l0.8,3.5l-4.5,9.8c0,0,27.4,3,36.4,1.4c7-1.2,26.1-10.6,26.1-10.6l23.8-19.5l2,2
		l-16.1,15.1l33.2,13.2l48.4-1l-1.6,3.3l-11,3l11.2,7.7L597,100l15.7-10.2l1,2.4l-9.6,8.1l24.2,11.6l38.9,42.3l-1.6,0.8l-36.2-37
		l-27.1-12l-22.6-1.4l-16.7-12l-28.9-0.2l3.9,14.6l-2.4,1l-7.1-16.5c0,0-22.4-11.7-30.7-12c-8.8-0.3-33.4,10.8-33.4,10.8l21.2,14
		l0.6,2.8l-13.8-0.8l-23-14.3l-31.4,2.8l-33.4,14.8l-34,29.1l24.2,0.6l33.8-19.9l3-0.4l-2.2,4.7l-10.4,8.5l20.3-0.6l19.9,9
		c0,0,16.3-10.6,21.6-14.3c3.9-2.8,11.7-8.9,16.3-10.4c8.1-2.6,34.2-1.8,34.2-1.8l0.4,3.3l-29.3,2l-16.9,9l24.4,2.6l24.6,11l0.2,2.4
		h-6.3l-20.3-9.6l-25.9,1.6l-22.6,10.8l-21.8-8.3l-24.6-1L368,149.2c0,0-29.2-2-38.7,0c-19.1,4-55.9,19.6-71.4,31.4
		c-12.3,9.4-32.1,35-37,49.7c-2.3,6.8-2.3,21.9,0,28.7c2,5.9,13.4,21,13.4,21s9.6-18.3,14.6-23c9.5-9,45.6-25.4,45.6-25.4l22.2-26.9
		c0,0-1.9-18,0.4-23.4c2.2-5.1,16.1-15.5,16.1-15.5l1.2,3l-11.6,13.6l-0.4,18.5c0,0,9.1-2.3,11.8-3.7c6.1-3.2,21.8-16.9,21.8-16.9
		s2.9,3.8,2.8,5.3c-0.2,2.4-5.7,7.9-5.7,7.9l-29.5,13c0,0-6.5,5.8-7.5,8.5c-0.7,1.8,1.2,1.7,2.8,3c7.8,6.6,28.5,3.1,37.5-1.6
		c10.2-5.3,32.2-32.8,32.2-32.8l2.8,0.2c0,0-6.5,8.9-3.7,13.4c5.5,8.7,24.6,3.9,35,2.4c7.9-1.2,21.6-11.6,21.6-11.6l1.4,1.8
		c0,0-16.3,10.8-16.9,16.7c-0.5,5.4,12.4,18.1,12.4,18.1l-4.3,0.4c0,0-13.2-14.8-19.1-17.5c-8.3-3.8-27.8-3.4-36.6-0.8
		c-6.1,1.9-15.9,11.2-22,13.3c-11.8,4-37.8,4.1-49,9.7c-4.2,2.1-10.5,9.6-14,12.8c-12.1,11.2-39.8,10.7-48.4,45.2
		c-2,7.9-1.6,32.4-1.6,32.4s6.7,25.5,11,33C264.3,365.2,294.2,395.7,294.2,395.7z"/>
	<path class="st3" d="M155.2,265.2c0.3-1.1,3.5-0.3,4.6,0c1.3,0.4,4.7,2.9,4.7,2.9s-6.5-7.1-9.3-8.5c-2.3-1.1-7.8-1.4-10.2-0.7
		c-2,0.7-5.4,4.5-5.4,6.7c0,2.1,3.4,5.8,5.4,6.6c4.4,1.6,18.9,0,18.9,0S154.4,267.9,155.2,265.2z"/>
	<path class="st3" d="M170.9,255.8c1-0.2,1.8,2.5,2.1,3.5c0.3,1.2-0.1,4.9-0.1,4.9s2.5-8.2,2.3-11c-0.2-2.3-2.4-6.6-4.1-8.1
		c-1.4-1.2-6-2.1-7.6-1.1c-1.6,1-3,5.3-2.6,7.1c0.8,4.1,8.6,14.5,8.6,14.5S168.5,256.4,170.9,255.8z"/>
	<path class="st3" d="M149.8,230.2c-0.5-0.6,1.2-2.3,1.9-2.9c0.8-0.7,3.6-1.9,3.6-1.9s-6.8,1.4-8.8,2.6c-1.6,1-4,4.3-4.5,6.1
		c-0.4,1.5,0.5,5.1,1.8,5.9c1.2,0.8,4.8,0.1,6-0.9c2.7-2.2,7.6-11.8,7.6-11.8S151.1,231.7,149.8,230.2z"/>
	<path class="st3" d="M158.2,210.4c0-1,2.9-1,3.9-1c1.2,0.1,4.6,1.5,4.6,1.5s-7-4.9-9.7-5.5c-2.2-0.5-6.9,0.3-8.8,1.6
		c-1.6,1-3.6,5.1-3.1,7c0.5,1.9,4.1,4.4,6,4.6c4.1,0.5,16-4,16-4S158.1,212.9,158.2,210.4z"/>
	<path class="st3" d="M163,196.9c0.5-0.6,2.8,0.7,3.6,1.1c1,0.5,3.2,2.8,3.2,2.8s-3.8-5.6-5.7-7.1c-1.6-1.2-5.8-2.7-7.8-2.9
		c-1.7-0.1-5,1.3-5.4,2.5c-0.4,1.2,1.6,4.1,3,5c3.2,2,14.7,4.6,14.7,4.6S161.9,198.2,163,196.9z"/>
	<path class="st3" d="M167.8,164.5c-1.7,0.3-4.5,3.3-5,5c-0.7,2.2-0.8,6.9,0,9c1.2,3.1,7.9,10.9,7.9,10.9s-3-11.7,0-12.5
		c2.7-0.7,5.2,9.8,5.2,9.8s2-13.1,0-16.8C174.8,167.8,170.2,164.1,167.8,164.5z"/>
	<path class="st3" d="M191,162.4c-2.5,0.1-6.3,4.3-7.3,6.6c-1.7,3.5-0.7,15.3-0.7,15.3s5.7-9.7,8-8.1c2.3,1.6-4.7,10.2-4.7,10.2
		s8.9-6.3,10.5-9.4c1.3-2.6,0.6-9-0.7-11.5C195.5,164.1,192.5,162.3,191,162.4z"/>
	<path class="st3" d="M207.4,186.1c-1.7-1.7-7.5-1.6-9.8-0.8c-3.7,1.2-11.6,10.1-11.6,10.1s11-2.6,11.4,0.2
		c0.4,2.8-10.7,3.6-10.7,3.6s10.7,2.2,14.1,1.1c2.8-0.9,6.9-5.7,7.9-8.4C209.3,190.5,208.5,187.1,207.4,186.1z"/>
	<path class="st3" d="M205.4,104.9c-2.1,1.2-3.5,6.8-3.4,9.2c0.2,3.8,6.6,13.9,6.6,13.9s0.5-11.2,3.3-10.9
		c2.8,0.3,0.6,11.2,0.6,11.2s5-9.7,4.9-13.2c-0.1-2.9-3.6-8.2-5.9-9.9C210.1,104.3,206.7,104.1,205.4,104.9z"/>
	<path class="st3" d="M180.1,145.6c1.4,2,7.1,2.9,9.5,2.6c3.8-0.5,13.2-7.9,13.2-7.9s-11.2,0.6-11.2-2.2c0.1-2.8,11.1-1.7,11.1-1.7
		s-10.1-4-13.6-3.6c-2.9,0.4-7.8,4.4-9.3,6.9C179.1,141,179.3,144.4,180.1,145.6z"/>
	<path class="st3" d="M217.3,102.8c0.3,2.4,4.9,5.9,7.2,6.7c3.6,1.3,15.3-0.7,15.3-0.7s-10.2-4.8-8.8-7.2c1.4-2.4,10.6,3.8,10.6,3.8
		s-7-8.3-10.3-9.6c-2.7-1-9,0.1-11.4,1.7C218.6,98.2,217.1,101.3,217.3,102.8z"/>
	<path class="st3" d="M228.4,119.9c-0.6,2.4,2.5,7.2,4.4,8.8c2.9,2.5,14.6,4.7,14.6,4.7s-7.9-8-5.7-9.9c2.1-1.8,8.6,7.2,8.6,7.2
		s-3.7-10.3-6.3-12.6c-2.2-1.9-8.5-3-11.3-2.4C231.3,116,228.8,118.4,228.4,119.9z"/>
	<path class="st3" d="M250.8,101c-2.1,1.2-3.6,6.7-3.5,9.2c0.1,3.8,6.5,13.9,6.5,13.9s0.5-11.2,3.4-10.9c2.8,0.3,0.5,11.2,0.5,11.2
		s5-9.7,5-13.2c-0.1-2.9-3.6-8.2-5.9-9.9C255.5,100.5,252.1,100.3,250.8,101z"/>
	<path class="st3" d="M239.8,89.1c0.7-0.2,2,2,2.5,2.8c0.6,1,1.3,4,1.3,4s-0.3-6.8-1.2-9c-0.7-1.9-3.6-5.3-5.2-6.5
		c-1.4-1-4.9-1.5-5.9-0.6c-0.9,0.8-0.8,4.4,0,5.9c1.7,3.3,10.2,11.5,10.2,11.5S238.2,89.7,239.8,89.1z"/>
	<path class="st3" d="M259.7,87.9c1.1,0.6-0.4,3.1-1,4c-0.7,1.1-4.1,3.4-4.1,3.4s8.9-3.8,11-5.9c1.7-1.7,3.2-6.4,2.9-8.8
		c-0.3-2-3.6-5.9-5.9-6.4c-2.2-0.6-6.9,1.4-8.1,3c-2.6,3.5-4.1,16.5-4.1,16.5S257,86.5,259.7,87.9z"/>
	<path class="st3" d="M273.1,94.9c-1.6-0.4-4.8,1.7-5.9,2.9c-1.7,1.9-3.1,9.7-3.1,9.7s5.3-5.3,6.5-3.8c1.2,1.4-4.8,5.7-4.8,5.7
		s6.8-2.5,8.4-4.2c1.3-1.4,2-5.6,1.6-7.5C275.7,96.8,274.1,95.2,273.1,94.9z"/>
	<path class="st3" d="M280.6,113c-1.5-1.1-6.4,0.4-8.4,1.6c-3.1,1.9-10,11.5-10,11.5s9.4-4.8,9.8-2.5c0.3,2.3-9.2,5.7-9.2,5.7
		s9.1-0.6,12-2.3c2.4-1.4,6-6.6,6.9-9.2C282.1,116.4,281.5,113.7,280.6,113z"/>
	<path class="st3" d="M287.3,70c0-1,2.6-1.1,3.5-1c1.1,0,4.4,1.4,4.4,1.4s-6.8-4.8-9.4-5.3c-2.1-0.5-6.4,0.5-8.1,1.7
		c-1.4,1-3,5.2-2.4,7.1c0.6,1.9,4.1,4.3,5.8,4.5c3.8,0.4,14.6-4.3,14.6-4.3S287.4,72.5,287.3,70z"/>
	<path class="st3" d="M267.4,58.1c-0.2-1,2.3-1.6,3.3-1.7c1.1-0.2,4.6,0.6,4.6,0.6s-7.6-3.3-10.2-3.4c-2.1-0.1-6.2,1.7-7.6,3.3
		c-1.2,1.3-1.9,5.7-1,7.4c0.9,1.7,4.9,3.4,6.6,3.3c3.8-0.4,13.4-7.1,13.4-7.1S267.9,60.6,267.4,58.1z"/>
	<path class="st3" d="M287.5,49.5c1,0.2,0.6,2.8,0.3,3.7c-0.2,1.1-2.3,4-2.3,4s5.9-5.8,7-8.2c0.9-1.9,0.7-6.4-0.2-8.2
		c-0.8-1.6-4.5-3.9-6.5-3.7c-1.9,0.2-5,3.2-5.5,4.9c-1.1,3.7,1.4,15.1,1.4,15.1S285.1,49.1,287.5,49.5z"/>
	<path class="st3" d="M304.6,62c0.5-0.9,2.8,0.4,3.6,0.9c1,0.6,3,3.5,3,3.5s-3.4-7.6-5.3-9.4c-1.5-1.5-5.7-2.9-7.8-2.6
		c-1.7,0.2-5.2,2.9-5.7,4.8c-0.5,1.9,1.3,5.8,2.7,6.9c3.1,2.3,14.7,3.8,14.7,3.8S303.4,64.2,304.6,62z"/>
	<path class="st3" d="M299.7,82.9c-0.7-0.7,1.2-2.6,1.9-3.2c0.8-0.8,4.2-1.9,4.2-1.9s-8.2,1.2-10.5,2.5c-1.8,1.1-4.3,4.7-4.7,6.8
		c-0.3,1.7,1.4,5.8,3.1,6.8c1.7,1,6,0.3,7.3-0.7c3.1-2.3,7.7-13.1,7.7-13.1S301.5,84.7,299.7,82.9z"/>
	<path class="st3" d="M323.6,53.6c1.1,0.5-0.2,3.6-0.7,4.6c-0.6,1.3-3.7,4.3-3.7,4.3s8.4-5.4,10.3-8c1.5-2.1,2.7-7.6,2.3-10.2
		c-0.4-2.2-3.9-6.2-6.1-6.5c-2.2-0.3-6.6,2.5-7.6,4.4c-2.3,4.2-2.9,19.1-2.9,19.1S320.9,52.4,323.6,53.6z"/>
	<path class="st3" d="M350.3,61c0.7-0.6,2.6,1.4,3.2,2.1c0.8,0.9,2,4.2,2,4.2s-1.2-8-2.6-10.3c-1.1-1.9-4.8-4.6-6.8-5.1
		c-1.7-0.4-5.9,0.8-6.9,2.3c-1,1.5-0.3,5.7,0.7,7.1c2.4,3.2,13.2,8.6,13.2,8.6S348.5,62.5,350.3,61z"/>
	<path class="st3" d="M336.8,28.2c0.7-0.6,2.6,1.4,3.2,2.1c0.8,0.9,2,4.2,2,4.2s-1.2-8-2.6-10.3c-1.1-1.9-4.8-4.6-6.8-5.1
		c-1.7-0.4-5.9,0.8-6.9,2.3c-1,1.5-0.3,5.7,0.7,7.1c2.4,3.2,13.2,8.6,13.2,8.6S335,29.7,336.8,28.2z"/>
	<path class="st3" d="M311.2,38.7c0.7,0.6-1,2.8-1.6,3.5c-0.8,0.9-3.9,2.6-3.9,2.6s7.7-2.5,9.8-4.1c1.7-1.3,3.8-5.4,4-7.6
		c0.2-1.8-1.7-5.7-3.4-6.4c-1.7-0.7-5.7,0.5-6.9,1.8c-2.8,2.8-6.4,14.4-6.4,14.4S309.4,37.2,311.2,38.7z"/>
	<path class="st3" d="M355.5,25.1c0.7,0.6-1,2.8-1.6,3.5c-0.8,0.9-3.9,2.6-3.9,2.6s7.7-2.5,9.8-4.1c1.7-1.3,3.8-5.4,4-7.6
		c0.2-1.8-1.7-5.7-3.4-6.4c-1.7-0.7-5.7,0.5-6.9,1.8c-2.8,2.8-6.4,14.4-6.4,14.4S353.7,23.6,355.5,25.1z"/>
	<path class="st3" d="M373.4,26.7c0.7,0.6-1,2.8-1.6,3.5c-0.8,0.9-3.9,2.6-3.9,2.6s7.7-2.5,9.8-4.1c1.7-1.3,3.8-5.4,4-7.6
		c0.2-1.8-1.7-5.7-3.4-6.4c-1.7-0.7-5.7,0.5-6.9,1.8c-2.8,2.8-6.4,14.4-6.4,14.4S371.6,25.2,373.4,26.7z"/>
	<path class="st3" d="M363.7,50.2c1,0,1.1,2.7,1.1,3.7c0,1.2-1.2,4.5-1.2,4.5s4.2-7,4.7-9.5c0.4-2.1-0.7-6.6-2-8.3
		c-1-1.4-5-3.2-6.8-2.6c-1.7,0.5-3.9,4.1-4,5.9c-0.2,3.9,4.6,15.1,4.6,15.1S361.3,50.2,363.7,50.2z"/>
	<path class="st3" d="M377.7,60.5c0.4,0.9-2,2.1-2.9,2.5c-1,0.5-4.6,0.7-4.6,0.7s8.1,1.1,10.6,0.4c2.1-0.5,5.7-3.3,6.8-5.1
		c0.9-1.5,0.9-5.9-0.3-7.2c-1.2-1.4-5.4-1.9-7-1.3c-3.7,1.4-11.9,10.3-11.9,10.3S376.7,58.3,377.7,60.5z"/>
	<path class="st3" d="M449,43.1c0.4,0.9-2,2.1-2.9,2.5c-1,0.5-4.6,0.7-4.6,0.7s8.1,1.1,10.6,0.4c2.1-0.5,5.7-3.3,6.8-5.1
		c0.9-1.5,0.9-5.9-0.3-7.2c-1.2-1.4-5.4-1.9-7-1.3c-3.7,1.4-11.9,10.3-11.9,10.3S448,40.9,449,43.1z"/>
	<path class="st3" d="M460.8,19.8c0.4,0.9-2,2.1-2.9,2.5c-1,0.5-4.6,0.7-4.6,0.7s8.1,1.1,10.6,0.4c2.1-0.5,5.7-3.3,6.8-5.1
		c0.9-1.5,0.9-5.9-0.3-7.2c-1.2-1.4-5.4-1.9-7-1.3c-3.7,1.4-11.9,10.3-11.9,10.3S459.8,17.7,460.8,19.8z"/>
	<path class="st3" d="M438.8,29.4c1,0.1,0.6,2.8,0.5,3.8c-0.2,1.1-1.9,4.2-1.9,4.2s5.3-6.1,6.2-8.6c0.7-2,0.4-6.6-0.6-8.5
		c-0.8-1.6-4.4-3.9-6.2-3.7c-1.8,0.2-4.6,3.4-5,5.2c-0.9,3.9,2.1,15.6,2.1,15.6S436.5,29.1,438.8,29.4z"/>
	<path class="st3" d="M418.3,15c1-0.1,1.5,2.5,1.6,3.4c0.2,1.1-0.5,4.6-0.5,4.6s3.2-7.5,3.2-10.1c0.1-2.1-1.7-6.4-3.2-7.9
		c-1.2-1.3-5.4-2.4-7.1-1.6c-1.6,0.8-3.3,4.7-3.1,6.4c0.3,3.9,6.8,14.2,6.8,14.2S416,15.4,418.3,15z"/>
	<path class="st3" d="M398.6,14.5c0.6-0.8,2.8,0.8,3.6,1.4c0.9,0.7,2.8,3.7,2.8,3.7s-2.8-7.6-4.5-9.6c-1.4-1.6-5.6-3.6-7.7-3.7
		c-1.8-0.1-5.6,1.9-6.3,3.6c-0.7,1.7,0.8,5.7,2.1,6.9c2.9,2.6,14.6,5.8,14.6,5.8S397.1,16.3,398.6,14.5z"/>
	<path class="st3" d="M422.3,38.9c0.4-0.9,2.9,0.1,3.8,0.6c1,0.5,3.5,3,3.5,3s-4.5-6.8-6.6-8.3c-1.8-1.2-6.3-2.2-8.4-1.8
		c-1.8,0.3-5,3.2-5.2,5c-0.3,1.8,2.1,5.3,3.6,6.2c3.5,1.9,15.6,2.2,15.6,2.2S421.3,41.1,422.3,38.9z"/>
	<path class="st3" d="M400.4,33.9c-0.4-0.9,2.1-2,3-2.4c1.1-0.5,4.6-0.6,4.6-0.6s-8-1.3-10.6-0.8c-2.1,0.4-5.8,3.1-7,4.9
		c-1,1.5-1.1,5.8,0.1,7.2c1.1,1.4,5.3,2.1,7,1.5c3.7-1.3,12.2-9.9,12.2-9.9S401.3,36.1,400.4,33.9z"/>
	<path class="st3" d="M378.2,43.7c0.4,0.5-0.9,1.7-1.4,2.2c-0.6,0.5-2.8,1.3-2.8,1.3s5.4-0.8,7-1.7c1.3-0.7,3.1-3.2,3.4-4.6
		c0.3-1.2-0.6-4-1.6-4.6c-1-0.7-3.9-0.2-4.8,0.5c-2.1,1.6-5.8,9-5.8,9S377.2,42.4,378.2,43.7z"/>
	<path class="st3" d="M489.6,19c0,1-2.7,1.2-3.6,1.2c-1.2,0-4.5-1.1-4.5-1.1s7,4.1,9.6,4.5c2.1,0.3,6.6-0.8,8.3-2.1
		c1.4-1.1,3.1-5.1,2.5-6.8c-0.6-1.7-4.2-3.9-6-3.9c-3.9-0.2-15,4.8-15,4.8S489.5,16.6,489.6,19z"/>
	<path class="st3" d="M484.6,53.6c0,1-2.7,1.2-3.6,1.2c-1.2,0-4.5-1.1-4.5-1.1s7,4.1,9.6,4.5c2.1,0.3,6.6-0.8,8.3-2.1
		c1.4-1.1,3.1-5.1,2.5-6.8c-0.6-1.7-4.2-3.9-6-3.9c-3.9-0.2-15,4.8-15,4.8S484.5,51.2,484.6,53.6z"/>
	<path class="st3" d="M470.8,66.4c-1,0.2-1.6-2.4-1.8-3.4c-0.3-1.1,0.3-4.6,0.3-4.6s-2.8,7.7-2.7,10.3c0.1,2.1,2,6.3,3.6,7.8
		c1.3,1.2,5.5,2.1,7.2,1.2c1.6-0.9,3-4.9,2.8-6.6c-0.6-3.9-7.5-13.8-7.5-13.8S473.2,65.9,470.8,66.4z"/>
	<path class="st3" d="M475.4,38.6c0.4,0.8-1.8,2-2.5,2.4c-0.9,0.5-4,0.9-4,0.9s7.1,0.4,9.3-0.3c1.8-0.6,5-3.3,5.9-5
		c0.8-1.4,0.7-5.2-0.3-6.3c-1-1.1-4.7-1.3-6.2-0.6c-3.2,1.5-10.4,9.8-10.4,9.8S474.5,36.8,475.4,38.6z"/>
	<path class="st3" d="M534.1,41.2c0.4,1-2.7,2.9-3.8,3.6c-1.3,0.8-5.7,1.7-5.7,1.7s9.9-0.2,13.1-1.4c2.6-1,7.4-5.1,8.9-7.5
		c1.2-2,1.5-7.3,0.1-8.7c-1.4-1.4-6.5-1.4-8.6-0.3c-4.7,2.4-15.6,14.7-15.6,14.7S533,38.7,534.1,41.2z"/>
	<path class="st3" d="M438.4,100c-1.3-1.6-6.7-1.7-9.1-1c-3.7,1-13.1,8.8-13.1,8.8s10.9-2,10.7,0.5c-0.2,2.5-10.8,3-10.8,3
		s9.6,2.3,13,1.4c2.8-0.7,7.8-5,9.3-7.4C439.2,104.1,439.2,101,438.4,100z"/>
	<path class="st3" d="M443.7,127.4c0.1-2.1-3.9-5.7-6.1-6.8c-3.4-1.7-15.6-2.2-15.6-2.2s9.5,5.8,7.6,7.5c-1.9,1.7-10.1-5-10.1-5
		s5.6,8.1,8.7,9.7c2.6,1.3,9.1,1.5,11.9,0.7C441.6,130.9,443.7,128.7,443.7,127.4z"/>
	<path class="st3" d="M389.5,111.8c0,1.5,3,3.9,4.6,4.6c2.5,1.1,11.2,0.9,11.2,0.9s-7-3.7-5.7-5c1.2-1.3,7.3,3.2,7.3,3.2
		s-4.3-5.5-6.6-6.6c-1.9-0.8-6.5-0.7-8.4,0C390.9,109.3,389.5,111,389.5,111.8z"/>
	<path class="st3" d="M490.3,93c-0.7,1.4,1.1,5.3,2.3,6.8c1.9,2.3,10.7,6.4,10.7,6.4s-5.2-7.1-3.2-7.8c1.9-0.7,5.8,6.7,5.8,6.7
		s-1.6-7.6-3.4-9.7c-1.4-1.7-6.2-3.9-8.4-4.1C492.9,91.1,490.8,92.1,490.3,93z"/>
	<path class="st3" d="M517.6,92.4c-1.6,0.2-3.9,3.8-4.4,5.7c-0.9,2.9,0.5,12.5,0.5,12.5s3.1-8.2,4.8-7c1.6,1.2-2.5,8.5-2.5,8.5
		s5.5-5.5,6.3-8.1c0.7-2.2-0.1-7.3-1.1-9.3C520.6,93.6,518.5,92.3,517.6,92.4z"/>
	<path class="st3" d="M537.1,118.8c-0.6-1.5-4.6-2.8-6.6-2.9c-3-0.1-12,3.5-12,3.5s8.7,1.1,7.9,2.9c-0.8,1.9-8.9-0.3-8.9-0.3
		s6.7,4,9.4,4.2c2.3,0.1,7-1.9,8.8-3.3C536.7,122,537.5,119.7,537.1,118.8z"/>
	<path class="st3" d="M541.9,136.3c-0.6-1.5-4.6-2.8-6.6-2.9c-3-0.1-12,3.5-12,3.5s8.7,1.1,7.9,2.9c-0.8,1.9-8.9-0.3-8.9-0.3
		s6.7,4,9.4,4.2c2.3,0.1,7-1.9,8.8-3.3C541.6,139.5,542.3,137.2,541.9,136.3z"/>
	<path class="st3" d="M504.9,170.8c1.6,0.2,4.7-2.7,5.7-4.3c1.6-2.6,2.7-12.2,2.7-12.2s-5.1,7.1-6.4,5.5c-1.3-1.6,4.6-7.6,4.6-7.6
		s-6.7,3.9-8.2,6.3c-1.2,1.9-1.7,7.1-1.3,9.3C502.3,168.9,504,170.6,504.9,170.8z"/>
	<path class="st3" d="M531.9,166.9c1.3-0.9,1.6-5.2,1.2-7.1c-0.6-3-6.4-10.7-6.4-10.7s1.2,8.7-0.8,8.4c-2-0.3-1.9-8.7-1.9-8.7
		s-2.2,7.5-1.7,10.2c0.4,2.2,3.6,6.3,5.4,7.6C528.7,167.3,531.1,167.4,531.9,166.9z"/>
	<path class="st3" d="M559.4,153.2c-0.3-1.7-4.1-3.9-6-4.4c-3-0.8-12.4,1.3-12.4,1.3s8.4,2.9,7.3,4.7c-1.1,1.8-8.7-2.2-8.7-2.2
		s5.9,5.6,8.6,6.3c2.2,0.6,7.3-0.6,9.2-1.8C558.5,156.6,559.6,154.3,559.4,153.2z"/>
	<path class="st3" d="M555.3,49.7c-0.1,1.1-3.7,1.4-5,1.5c-1.5,0.1-5.9-1-5.9-1s9,4.2,12.4,4.5c2.8,0.3,8.8-1.3,11.2-2.9
		c2-1.3,4.6-5.9,4-7.8c-0.6-1.9-5.3-4.1-7.6-4.1c-5.2,0.1-20.4,6.3-20.4,6.3S555.4,47.1,555.3,49.7z"/>
	<path class="st3" d="M531,64c-0.9,0.7-3.5-1.8-4.4-2.8c-1.1-1.1-3.1-5.1-3.1-5.1s2.7,9.5,4.8,12.3c1.6,2.3,6.8,5.8,9.5,6.6
		c2.3,0.7,7.4-0.4,8.5-2.1c1-1.7-0.4-6.7-1.9-8.4c-3.5-3.9-18.2-11.3-18.2-11.3S533.1,62.4,531,64z"/>
	<path class="st3" d="M513.1,37c1.1,0.2,0.9,3.9,0.8,5.1c-0.1,1.5-1.8,5.7-1.8,5.7s5.4-8.3,6.2-11.7c0.6-2.7-0.1-8.9-1.2-11.5
		c-1-2.2-5.2-5.4-7.1-5c-2,0.3-4.8,4.6-5.1,7c-0.7,5.2,3.4,21.1,3.4,21.1S510.5,36.4,513.1,37z"/>
	<path class="st3" d="M573.2,72.1c0.8,0.1,0.9,2.7,0.9,3.7c0,1.1-0.9,4.2-0.9,4.2s3.2-6.3,3.5-8.8c0.3-2-0.6-6.5-1.6-8.3
		c-0.8-1.5-3.9-3.6-5.3-3.3c-1.3,0.3-3,3.6-3.1,5.3c-0.1,3.8,3.7,15.1,3.7,15.1S571.4,71.9,573.2,72.1z"/>
	<path class="st3" d="M591.6,69.9c0.5,0.6-1.1,2.7-1.7,3.4c-0.7,0.9-3.4,2.6-3.4,2.6s6.5-2.7,8.4-4.4c1.5-1.4,3.7-5.3,4.1-7.4
		c0.4-1.7-0.7-5.3-1.9-5.9c-1.2-0.6-4.6,0.8-5.8,2.1c-2.6,2.8-7,13.9-7,13.9S590.4,68.5,591.6,69.9z"/>
	<path class="st3" d="M594.1,85c-0.3,0.7-2.9,0.2-3.8,0.1c-1.1-0.2-3.9-1.8-3.9-1.8s5.4,4.6,7.8,5.4c1.9,0.7,6.4,0.9,8.4,0.3
		c1.7-0.5,4.4-3,4.4-4.4c0-1.4-2.8-3.8-4.5-4.2c-3.7-1-15.6,0.2-15.6,0.2S594.8,83.3,594.1,85z"/>
	<path class="st3" d="M470,216.1c-1.2-1.5-6.4-1.6-8.6-1c-3.5,0.9-12.5,8.3-12.5,8.3s10.4-1.9,10.2,0.5c-0.2,2.4-10.3,2.8-10.3,2.8
		s9.1,2.2,12.4,1.4c2.7-0.7,7.4-4.7,8.9-7C470.7,219.9,470.7,217,470,216.1z"/>
	<path class="st3" d="M359.8,160c-1.5-1.4-6.9-0.5-9.1,0.6c-3.5,1.6-11.4,11-11.4,11s10.4-3.9,10.6-1.4c0.2,2.5-10.2,4.8-10.2,4.8
		s9.9,0.6,13-0.9c2.6-1.2,6.8-6.2,7.9-8.9C361.2,163.9,360.7,160.8,359.8,160z"/>
	<path class="st3" d="M465,168.8c-1.9-0.6-6.2,2.2-7.8,3.9c-2.4,2.7-5.9,13.8-5.9,13.8s7.6-7.3,8.8-5.2c1.2,2.1-7.1,8-7.1,8
		s8.8-3.2,11.1-5.6c1.9-2,3.6-8,3.6-10.7C467.8,171.6,466.2,169.2,465,168.8z"/>
	<path class="st3" d="M479.5,194c-0.7-1.8-5.6-3.5-7.9-3.6c-3.6-0.2-14.5,4-14.5,4s10.5,1.4,9.5,3.7c-0.9,2.2-10.7-0.6-10.7-0.6
		s8,4.9,11.3,5.2c2.7,0.2,8.5-2.1,10.6-3.9C479,197.9,479.9,195.1,479.5,194z"/>
	<path class="st3" d="M435.5,164.3c-1.6,1.1-1.9,6.3-1.4,8.6c0.8,3.6,7.8,12.9,7.8,12.9s-1.5-10.5,1-10.1c2.4,0.3,2.3,10.4,2.3,10.4
		s2.6-9,1.9-12.3c-0.5-2.7-4.4-7.6-6.6-9.2C439.3,163.7,436.4,163.6,435.5,164.3z"/>
	<path class="st3" d="M402.1,152c-2.1,0-5.5,4.2-6.5,6.4c-1.6,3.5-1.4,15.7-1.4,15.7s5.2-9.8,7.1-8c1.9,1.7-4.5,10.3-4.5,10.3
		s7.8-6.1,9.2-9.3c1.2-2.6,1-9.2,0.1-11.9C405.7,153.9,403.3,152,402.1,152z"/>
	<path class="st3" d="M370.1,159c-1.2,1.7,0.2,6.9,1.4,9c1.9,3.3,12,10.3,12,10.3s-4.9-10-2.3-10.4c2.5-0.5,5.7,9.7,5.7,9.7
		s-0.4-9.9-2.1-12.9c-1.4-2.5-6.9-6.2-9.6-7C373.8,157.1,370.9,157.9,370.1,159z"/>
	<path class="st3" d="M425.5,192.4c-0.1-2-4.1-5.1-6.3-6c-3.4-1.4-15-0.8-15-0.8s9.5,4.7,7.8,6.5c-1.6,1.8-9.9-4-9.9-4
		s6,7.2,9.1,8.5c2.5,1.1,8.8,0.7,11.3-0.3C423.8,195.9,425.5,193.6,425.5,192.4z"/>
	<path class="st3" d="M285.4,178.3c0.2,2,4.8,4.9,7.2,5.7c3.7,1.1,15.8-0.6,15.8-0.6s-10.3-4-8.8-6.1c1.5-2,10.8,3.2,10.8,3.2
		s-7-7-10.3-8.1c-2.7-0.9-9.2,0.1-11.8,1.4C286.9,174.5,285.3,177.1,285.4,178.3z"/>
	<path class="st3" d="M309.2,163.3c-0.5,1,0.7,3.5,1.6,4.5c1.3,1.5,7.1,4.2,7.1,4.2s-3.4-4.7-2.2-5.2c1.2-0.5,3.8,4.5,3.8,4.5
		s-1.1-5-2.3-6.5c-1-1.2-4.1-2.6-5.6-2.7C311,162,309.5,162.7,309.2,163.3z"/>
	<path class="st3" d="M288.6,209.3c2.1,1.1,7.1-0.6,9-1.8c2.9-2,7.2-11.8,7.2-11.8s-9,5.1-10.2,2.8c-1.2-2.3,8.4-5.9,8.4-5.9
		s-10.2,0.9-12.8,2.7c-2.2,1.5-4.4,6.8-4.5,9.4C285.6,205.9,287.3,208.6,288.6,209.3z"/>
	<path class="st3" d="M434.8,257.9c1.9,0.2,5.6-3.4,6.8-5.4c1.8-3.1,3-14.7,3-14.7s-6,8.7-7.6,6.8c-1.6-1.9,5.3-9.3,5.3-9.3
		s-8,4.9-9.7,7.8c-1.4,2.3-1.9,8.6-1.3,11.2C431.6,255.7,433.6,257.8,434.8,257.9z"/>
	<path class="st3" d="M494.5,238.5c0.3-1.9-3-5.8-5-7.1c-3-2-14.5-3.9-14.5-3.9s8.3,6.5,6.3,8c-1.9,1.4-8.9-5.9-8.9-5.9
		s4.4,8.3,7.1,10.2c2.3,1.6,8.4,2.5,11.1,2C492.1,241.6,494.3,239.7,494.5,238.5z"/>
	<path class="st3" d="M469.8,244.7c0.5-2.3-2.8-6.8-4.7-8.3c-3-2.3-14.5-4-14.5-4s8.1,7.4,6,9.3c-2,1.8-8.8-6.7-8.8-6.7
		s4.1,9.7,6.8,11.9c2.2,1.8,8.4,2.6,11.2,1.9C467.2,248.5,469.5,246.1,469.8,244.7z"/>
</g>
</svg>
